Coordinates
version=1
nRows=24
nColumns=24
inDegrees=yes

Units are S.I. units (second, meters, Newtons, ...)
Angles are in degrees.

endheader
time	pelvis_tilt	pelvis_list	pelvis_rotation	pelvis_tx	pelvis_ty	pelvis_tz	hip_flexion_r	hip_adduction_r	hip_rotation_r	knee_angle_r	ankle_angle_r	subtalar_angle_r	mtp_angle_r	hip_flexion_l	hip_adduction_l	hip_rotation_l	knee_angle_l	ankle_angle_l	subtalar_angle_l	mtp_angle_l	lumbar_extension	lumbar_bending	lumbar_rotation
      1.66066667	      1.37292697	     11.41066567	     -6.65494622	      1.37660784	      1.00040282	      0.28733757	     11.82307541	    -15.63707103	      2.44079844	    -69.78315443	     -2.26609881	     -9.45804685	      2.72019451	     10.16050923	     16.93476293	      5.94642034	    -17.28536544	      3.92800348	    -20.86550118	     -3.48254650	    -12.26108313	     -7.99608102	      1.47728808
      1.66483333	      1.37393440	     11.18011889	     -6.45178286	      1.38143494	      1.00150563	      0.28685063	     12.33785886	    -15.31979255	      2.29902191	    -69.53266835	     -1.43203200	     -9.40527040	      2.64791389	      9.55867133	     16.76176002	      6.30123841	    -16.86200076	      3.94690585	    -20.84190643	     -3.46598578	    -12.34330494	     -7.66023932	      1.22146647
      1.66900000	      1.45530209	     11.00864593	     -6.27026193	      1.38638657	      1.00267522	      0.28635909	     12.76169080	    -15.09899582	      2.14908538	    -69.23078362	     -0.63338199	     -9.27000314	      2.45029887	      8.82105814	     16.66020033	      6.71719326	    -16.31249946	      3.87554272	    -20.95120063	     -3.42914145	    -12.44350496	     -7.36234202	      0.63161462
      1.67316667	      1.46815601	     10.81363469	     -6.07749732	      1.39122527	      1.00370437	      0.28587155	     13.26161448	    -14.83586966	      2.00374944	    -68.89905257	      0.16149933	     -9.13186204	      2.23926444	      8.18702553	     16.51684470	      7.10656133	    -15.82014951	      3.84711215	    -21.00417933	     -3.38900153	    -12.49585805	     -7.05162369	      0.23429137
      1.67733333	      1.49854722	     10.61012426	     -5.87509439	      1.39609340	      1.00472448	      0.28539937	     13.71801335	    -14.56173979	      1.85172872	    -68.50982578	      0.92704257	     -9.01847342	      1.99675923	      7.53159577	     16.35862497	      7.48996155	    -15.33119938	      3.83159422	    -21.04391820	     -3.34191760	    -12.56251991	     -6.73842143	     -0.16234092
      1.68150000	      1.53232200	     10.39634305	     -5.68436271	      1.40100758	      1.00573976	      0.28493510	     14.15849107	    -14.28325718	      1.69309432	    -68.06189223	      1.65261371	     -8.87370328	      1.84750099	      6.87135855	     16.18075136	      7.84412233	    -14.84159371	      3.86652731	    -21.02658455	     -3.31211678	    -12.62457431	     -6.41602125	     -0.48069708
      1.68566667	      1.53090591	     10.18110411	     -5.47266434	      1.40579559	      1.00664091	      0.28447320	     14.63508270	    -13.98975207	      1.54073286	    -67.58544945	      2.34577632	     -8.78329782	      1.74200681	      6.27236291	     15.99125058	      8.19577414	    -14.38635790	      3.87853873	    -20.99976462	     -3.28907369	    -12.69476926	     -6.08936058	     -0.79680253
      1.68983333	      1.56053074	     10.00985254	     -5.27952103	      1.41068612	      1.00751655	      0.28401698	     15.07519430	    -13.76402454	      1.38353852	    -67.07229757	      3.05442082	     -8.65505527	      1.59606060	      5.62162157	     15.84631797	      8.54279464	    -13.88381819	      3.87167102	    -21.01998447	     -3.25946220	    -12.73116911	     -5.79916369	     -1.22412309
      1.69400000	      1.60126199	      9.83938241	     -5.07358095	      1.41552691	      1.00837343	      0.28357338	     15.49522527	    -13.53501616	      1.22420264	    -66.52062610	      3.71267462	     -8.60545070	      1.36606227	      4.96227899	     15.69651838	      8.90790197	    -13.37131215	      3.78687523	    -21.07132353	     -3.21347502	    -12.81188631	     -5.53400230	     -1.64587667
      1.69816667	      1.61880395	      9.65887014	     -4.87406868	      1.42036141	      1.00914716	      0.28315475	     15.93080183	    -13.28860948	      1.07603338	    -65.92703815	      4.34899904	     -8.51931089	      1.15026150	      4.34115868	     15.52567124	      9.24057179	    -12.89037884	      3.78104017	    -21.06706506	     -3.16653975	    -12.86249612	     -5.25282348	     -1.99703226
      1.70233333	      1.62685512	      9.48527835	     -4.68495928	      1.42519782	      1.00985513	      0.28275063	     16.37402379	    -13.04906507	      0.93942631	    -65.29696180	      4.93403746	     -8.42313981	      1.02850832	      3.72876569	     15.35325986	      9.54027426	    -12.39835114	      3.81977032	    -21.01956130	     -3.13562438	    -12.89524187	     -4.97128437	     -2.27610953
      1.70650000	      1.65128142	      9.31366820	     -4.49152352	      1.43004390	      1.01054327	      0.28237029	     16.78415136	    -12.80969162	      0.80251397	    -64.62325801	      5.48024119	     -8.39115623	      0.90304720	      3.10529325	     15.17738492	      9.83553378	    -11.91181347	      3.81717489	    -20.98316227	     -3.10217056	    -12.94742636	     -4.70435004	     -2.61718834
      1.71066667	      1.64328418	      9.17021465	     -4.29473567	      1.43486060	      1.01112080	      0.28199795	     17.23262507	    -12.60004651	      0.67264482	    -63.92722348	      6.04303057	     -8.37802140	      0.71031723	      2.52294963	     15.02534498	     10.13898235	    -11.42817725	      3.75736947	    -20.99231721	     -3.05256120	    -12.96170694	     -4.47063113	     -3.00404587
      1.71483333	      1.64865859	      8.99365794	     -4.11125257	      1.43970201	      1.01169175	      0.28168133	     17.64442414	    -12.34218385	      0.56047324	    -63.17616228	      6.52968538	     -8.36903871	      0.64438754	      1.94295152	     14.82867378	     10.37305803	    -10.98253137	      3.79299504	    -20.89731183	     -3.03036685	    -12.99655543	     -4.23443921	     -3.17012703
      1.71900000	      1.68686341	      8.87604110	     -3.93359884	      1.44449837	      1.01220639	      0.28134456	     18.03746857	    -12.16577685	      0.44928893	    -62.42144538	      6.99649074	     -8.37469876	      0.47059762	      1.30410676	     14.69701643	     10.68105770	    -10.46278866	      3.74251572	    -20.90856615	     -2.97851312	    -13.06346310	     -4.00653346	     -3.61700291
      1.72316667	      1.70832981	      8.72775989	     -3.75606972	      1.44933376	      1.01267880	      0.28104845	     18.41982000	    -11.94363508	      0.34874432	    -61.61105733	      7.42078106	     -8.39977492	      0.31510755	      0.69421048	     14.52302016	     10.94430988	     -9.97805523	      3.73339004	    -20.87442802	     -2.92768568	    -13.11198025	     -3.77469960	     -3.90647837
      1.72733333	      1.71756563	      8.59013002	     -3.58055400	      1.45414051	      1.01308037	      0.28075655	     18.81273767	    -11.73472505	      0.25344070	    -60.77144904	      7.79982948	     -8.41550906	      0.19831224	      0.11146590	     14.35634670	     11.19213738	     -9.50803697	      3.75339214	    -20.83589949	     -2.88521657	    -13.13266166	     -3.54953262	     -4.19150302
      1.73150000	      1.73722913	      8.47714859	     -3.41333658	      1.45896781	      1.01342314	      0.28049650	     19.19230252	    -11.55269415	      0.16972224	    -59.91139735	      8.17016146	     -8.45615831	      0.08383698	     -0.48344855	     14.21202475	     11.44000271	     -9.03487648	      3.74008431	    -20.79677937	     -2.84276918	    -13.17302937	     -3.36103728	     -4.47522411
      1.73566667	      1.73595409	      8.35549270	     -3.24376652	      1.46375095	      1.01368513	      0.28025717	     19.58858905	    -11.35259558	      0.10168587	    -59.02071636	      8.48037036	     -8.52879898	     -0.01348085	     -1.03838933	     14.05235122	     11.66598507	     -8.58471454	      3.74261099	    -20.75483644	     -2.80295437	    -13.19690906	     -3.16852525	     -4.73613776
      1.73983333	      1.74979713	      8.23840453	     -3.08397434	      1.46856513	      1.01394149	      0.28004046	     19.94562189	    -11.16066833	      0.03504871	    -58.08367548	      8.78153447	     -8.60129233	     -0.11865945	     -1.61769992	     13.89467933	     11.90002432	     -8.12183235	      3.73123940	    -20.71965666	     -2.75925241	    -13.23125876	     -2.97581827	     -5.01464829
      1.74400000	      1.76226445	      8.14012037	     -2.91894428	      1.47335262	      1.01411582	      0.27982988	     20.30751166	    -10.99024426	     -0.02117073	    -57.13552898	      9.02568049	     -8.69737069	     -0.22619698	     -2.18135142	     13.75413355	     12.13854096	     -7.67764897	      3.72194501	    -20.69095024	     -2.71122899	    -13.26889547	     -2.81119179	     -5.29897627
      1.74816667	      1.72322486	      8.02678182	     -2.76157729	      1.47812543	      1.01419717	      0.27965951	     20.70710157	    -10.79313626	     -0.06227600	    -56.13964626	      9.27628686	     -8.76566103	     -0.28370773	     -2.66954209	     13.59024700	     12.31599246	     -7.26990845	      3.73105165	    -20.61155001	     -2.68315190	    -13.25057803	     -2.64637757	     -5.46216310
      1.75233333	      1.72226898	      7.92929467	     -2.59793240	      1.48291548	      1.01426399	      0.27948165	     21.05410522	    -10.62519572	     -0.11321298	    -55.12194954	      9.46338814	     -8.87235605	     -0.34339881	     -3.20444617	     13.44293899	     12.52986796	     -6.85506486	      3.75980867	    -20.54621580	     -2.65275082	    -13.27516972	     -2.47701337	     -5.71137107
      1.75650000	      1.72714483	      7.85277167	     -2.46429546	      1.48770568	      1.01428778	      0.27934664	     21.39754330	    -10.47588511	     -0.13584491	    -54.08012016	      9.56643603	     -9.01053078	     -0.43676166	     -3.75519688	     13.31562803	     12.75604333	     -6.40236735	      3.77133339	    -20.54882562	     -2.60567811	    -13.29633146	     -2.32943309	     -6.03939329
